{
  "streams": [
    {
      "index": 0,
      "codec_name": "aac",
      "codec_long_name": "AAC (Advanced Audio Coding)",
      "profile": "LC",
      "codec_type": "audio",
      "codec_tag_string": "mp4a",
      "codec_tag": "0x6134706d",
      "sample_fmt": "fltp",
      "sample_rate": "48000",
      "channels": 2,
      "channel_layout": "stereo",
      "bits_per_sample": 0,
      "initial_padding": 0,
      "id": "0x1",
      "r_frame_rate": "0/0",
      "avg_frame_rate": "0/0",
      "time_base": "1/48000",
      "start_pts": 0,
      "start_time": "0.000000",
      "duration_ts": 171200,
      "duration": "3.566667",
      "bit_rate": "126207",
      "nb_frames": "170",
      "extradata_size": 2,
      "disposition": {
        "default": 1,
        "dub": 0,
        "original": 0,
        "comment": 0,
        "lyrics": 0,
        "karaoke": 0,
        "forced": 0,
        "hearing_impaired": 0,
        "visual_impaired": 0,
        "clean_effects": 0,
        "attached_pic": 0,
        "timed_thumbnails": 0,
        "non_diegetic": 0,
        "captions": 0,
        "descriptions": 0,
        "metadata": 0,
        "dependent": 0,
        "still_image": 0,
        "multilayer": 0
      },
      "tags": {
        "creation_time": "2025-09-02T12:00:01.000000Z",
        "language": "und",
        "handler_name": "Core Media Audio",
        "vendor_id": "[0][0][0][0]"
      }
    },
    {
      "index": 1,
      "codec_type": "audio",
      "codec_tag_string": "apac",
      "codec_tag": "0x63617061",
      "sample_rate": "48000",
      "channels": 4,
      "bits_per_sample": 0,
      "initial_padding": 0,
      "id": "0x2",
      "r_frame_rate": "0/0",
      "avg_frame_rate": "0/0",
      "time_base": "1/48000",
      "start_pts": 0,
      "start_time": "0.000000",
      "duration_ts": 171200,
      "duration": "3.566667",
      "bit_rate": "397002",
      "nb_frames": "168",
      "disposition": {
        "default": 0,
        "dub": 0,
        "original": 0,
        "comment": 0,
        "lyrics": 0,
        "karaoke": 0,
        "forced": 0,
        "hearing_impaired": 0,
        "visual_impaired": 0,
        "clean_effects": 0,
        "attached_pic": 0,
        "timed_thumbnails": 0,
        "non_diegetic": 0,
        "captions": 0,
        "descriptions": 0,
        "metadata": 0,
        "dependent": 0,
        "still_image": 0,
        "multilayer": 0
      },
      "tags": {
        "creation_time": "2025-09-02T12:00:01.000000Z",
        "language": "und",
        "handler_name": "Core Media Audio",
        "vendor_id": "[0][0][0][0]"
      }
    },
    {
      "index": 2,
      "codec_name": "h264",
      "codec_long_name": "H.264 / AVC / MPEG-4 AVC / MPEG-4 part 10",
      "profile": "High",
      "codec_type": "video",
      "codec_tag_string": "avc1",
      "codec_tag": "0x31637661",
      "width": 3840,
      "height": 2160,
      "coded_width": 3840,
      "coded_height": 2160,
      "closed_captions": 0,
      "film_grain": 0,
      "has_b_frames": 2,
      "pix_fmt": "yuv420p",
      "level": 51,
      "color_range": "tv",
      "color_space": "bt709",
      "color_transfer": "bt709",
      "color_primaries": "bt709",
      "chroma_location": "left",
      "field_order": "progressive",
      "refs": 1,
      "is_avc": "true",
      "nal_length_size": "4",
      "id": "0x3",
      "r_frame_rate": "30/1",
      "avg_frame_rate": "30/1",
      "time_base": "1/600",
      "start_pts": 0,
      "start_time": "0.000000",
      "duration_ts": 2160,
      "duration": "3.600000",
      "bit_rate": "24912957",
      "bits_per_raw_sample": "8",
      "nb_frames": "108",
      "extradata_size": 35,
      "disposition": {
        "default": 1,
        "dub": 0,
        "original": 0,
        "comment": 0,
        "lyrics": 0,
        "karaoke": 0,
        "forced": 0,
        "hearing_impaired": 0,
        "visual_impaired": 0,
        "clean_effects": 0,
        "attached_pic": 0,
        "timed_thumbnails": 0,
        "non_diegetic": 0,
        "captions": 0,
        "descriptions": 0,
        "metadata": 0,
        "dependent": 0,
        "still_image": 0,
        "multilayer": 0
      },
      "tags": {
        "creation_time": "2025-09-02T12:00:01.000000Z",
        "language": "und",
        "handler_name": "Core Media Video",
        "vendor_id": "[0][0][0][0]",
        "encoder": "H.264"
      }
    },
    {
      "index": 3,
      "codec_type": "data",
      "codec_tag_string": "mebx",
      "codec_tag": "0x7862656d",
      "id": "0x4",
      "r_frame_rate": "0/0",
      "avg_frame_rate": "0/0",
      "time_base": "1/600",
      "start_pts": 0,
      "start_time": "0.000000",
      "duration_ts": 2141,
      "duration": "3.568333",
      "bit_rate": "22",
      "nb_frames": "1",
      "disposition": {
        "default": 1,
        "dub": 0,
        "original": 0,
        "comment": 0,
        "lyrics": 0,
        "karaoke": 0,
        "forced": 0,
        "hearing_impaired": 0,
        "visual_impaired": 0,
        "clean_effects": 0,
        "attached_pic": 0,
        "timed_thumbnails": 0,
        "non_diegetic": 0,
        "captions": 0,
        "descriptions": 0,
        "metadata": 0,
        "dependent": 0,
        "still_image": 0,
        "multilayer": 0
      },
      "tags": {
        "creation_time": "2025-09-02T12:00:01.000000Z",
        "language": "und",
        "handler_name": "Core Media Metadata"
      }
    },
    {
      "index": 4,
      "codec_type": "data",
      "codec_tag_string": "mebx",
      "codec_tag": "0x7862656d",
      "id": "0x5",
      "r_frame_rate": "0/0",
      "avg_frame_rate": "0/0",
      "time_base": "1/10000",
      "start_pts": 0,
      "start_time": "0.000000",
      "duration_ts": 35667,
      "duration": "3.566700",
      "bit_rate": "865",
      "nb_frames": "1",
      "disposition": {
        "default": 1,
        "dub": 0,
        "original": 0,
        "comment": 0,
        "lyrics": 0,
        "karaoke": 0,
        "forced": 0,
        "hearing_impaired": 0,
        "visual_impaired": 0,
        "clean_effects": 0,
        "attached_pic": 0,
        "timed_thumbnails": 0,
        "non_diegetic": 0,
        "captions": 0,
        "descriptions": 0,
        "metadata": 0,
        "dependent": 0,
        "still_image": 0,
        "multilayer": 0
      },
      "tags": {
        "creation_time": "2025-09-02T12:00:01.000000Z",
        "language": "und",
        "handler_name": "Core Media Metadata"
      }
    },
    {
      "index": 5,
      "codec_type": "data",
      "codec_tag_string": "mebx",
      "codec_tag": "0x7862656d",
      "id": "0x6",
      "r_frame_rate": "0/0",
      "avg_frame_rate": "0/0",
      "time_base": "1/600",
      "start_pts": 0,
      "start_time": "0.000000",
      "duration_ts": 2141,
      "duration": "3.568333",
      "bit_rate": "17",
      "nb_frames": "1",
      "disposition": {
        "default": 1,
        "dub": 0,
        "original": 0,
        "comment": 0,
        "lyrics": 0,
        "karaoke": 0,
        "forced": 0,
        "hearing_impaired": 0,
        "visual_impaired": 0,
        "clean_effects": 0,
        "attached_pic": 0,
        "timed_thumbnails": 0,
        "non_diegetic": 0,
        "captions": 0,
        "descriptions": 0,
        "metadata": 0,
        "dependent": 0,
        "still_image": 0,
        "multilayer": 0
      },
      "tags": {
        "creation_time": "2025-09-02T12:00:01.000000Z",
        "language": "und",
        "handler_name": "Core Media Metadata"
      }
    },
    {
      "index": 6,
      "codec_type": "data",
      "codec_tag_string": "mebx",
      "codec_tag": "0x7862656d",
      "id": "0x7",
      "r_frame_rate": "0/0",
      "avg_frame_rate": "0/0",
      "time_base": "1/600",
      "start_pts": 0,
      "start_time": "0.000000",
      "duration_ts": 2141,
      "duration": "3.568333",
      "bit_rate": "69087",
      "nb_frames": "214",
      "disposition": {
        "default": 1,
        "dub": 0,
        "original": 0,
        "comment": 0,
        "lyrics": 0,
        "karaoke": 0,
        "forced": 0,
        "hearing_impaired": 0,
        "visual_impaired": 0,
        "clean_effects": 0,
        "attached_pic": 0,
        "timed_thumbnails": 0,
        "non_diegetic": 0,
        "captions": 0,
        "descriptions": 0,
        "metadata": 0,
        "dependent": 0,
        "still_image": 0,
        "multilayer": 0
      },
      "tags": {
        "creation_time": "2025-09-02T12:00:01.000000Z",
        "language": "und",
        "handler_name": "Core Media Metadata"
      }
    },
    {
      "index": 7,
      "codec_type": "data",
      "codec_tag_string": "mebx",
      "codec_tag": "0x7862656d",
      "id": "0x8",
      "r_frame_rate": "0/0",
      "avg_frame_rate": "0/0",
      "time_base": "1/10000",
      "start_pts": 0,
      "start_time": "0.000000",
      "duration_ts": 35667,
      "duration": "3.566700",
      "bit_rate": "5759",
      "nb_frames": "214",
      "disposition": {
        "default": 1,
        "dub": 0,
        "original": 0,
        "comment": 0,
        "lyrics": 0,
        "karaoke": 0,
        "forced": 0,
        "hearing_impaired": 0,
        "visual_impaired": 0,
        "clean_effects": 0,
        "attached_pic": 0,
        "timed_thumbnails": 0,
        "non_diegetic": 0,
        "captions": 0,
        "descriptions": 0,
        "metadata": 0,
        "dependent": 0,
        "still_image": 0,
        "multilayer": 0
      },
      "tags": {
        "creation_time": "2025-09-02T12:00:01.000000Z",
        "language": "und",
        "handler_name": "Core Media Metadata"
      }
    },
    {
      "index": 8,
      "codec_type": "data",
      "codec_tag_string": "mebx",
      "codec_tag": "0x7862656d",
      "id": "0x9",
      "r_frame_rate": "0/0",
      "avg_frame_rate": "0/0",
      "time_base": "1/600",
      "start_pts": 0,
      "start_time": "0.000000",
      "duration_ts": 2141,
      "duration": "3.568333",
      "bit_rate": "98",
      "nb_frames": "1",
      "disposition": {
        "default": 1,
        "dub": 0,
        "original": 0,
        "comment": 0,
        "lyrics": 0,
        "karaoke": 0,
        "forced": 0,
        "hearing_impaired": 0,
        "visual_impaired": 0,
        "clean_effects": 0,
        "attached_pic": 0,
        "timed_thumbnails": 0,
        "non_diegetic": 0,
        "captions": 0,
        "descriptions": 0,
        "metadata": 0,
        "dependent": 0,
        "still_image": 0,
        "multilayer": 0
      },
      "tags": {
        "creation_time": "2025-09-02T12:00:01.000000Z",
        "language": "und",
        "handler_name": "Core Media Metadata"
      }
    }
  ],
  "format": {
    "filename": "video.mov",
    "nb_streams": 9,
    "nb_programs": 0,
    "nb_stream_groups": 0,
    "format_name": "mov,mp4,m4a,3gp,3g2,mj2",
    "format_long_name": "QuickTime / MOV",
    "start_time": "0.000000",
    "duration": "3.600000",
    "size": "11492177",
    "bit_rate": "25538171",
    "probe_score": 100,
    "tags": {
      "major_brand": "qt ",
      "minor_version": "0",
      "compatible_brands": "qt ",
      "creation_time": "2025-09-02T12:00:01.000000Z",
      "com.apple.quicktime.location.accuracy.horizontal": "15.768355",
      "com.apple.quicktime.full-frame-rate-playback-intent": "0",
      "com.apple.quicktime.location.ISO6709": "+59.3130+18.0406+152.602/",
      "com.apple.quicktime.make": "Apple",
      "com.apple.quicktime.model": "iPhone 16 Pro",
      "com.apple.quicktime.software": "18.6.2",
      "com.apple.quicktime.creationdate": "2025-09-02T13:53:13+0200"
    }
  }
}